<svg width="242" height="242" viewBox="0 0 242 242" fill="none" xmlns="http://www.w3.org/2000/svg">
<g filter="url(#filter0_f_1_753)">
<g clip-path="url(#clip0_1_753)">
<rect x="1.5" y="1.5" width="239" height="239" rx="60" fill="url(#paint0_linear_1_753)"/>
<path d="M-178.723 260.789C-178.723 260.789 -107.943 199.319 -36.2192 226.744C33.617 253.224 84.5785 265.045 154.415 203.575C238.879 129.338 281.818 161.492 281.818 161.492" stroke="white" stroke-opacity="0.1" stroke-width="5" stroke-miterlimit="10"/>
<path d="M-182.566 258.223C-182.566 258.223 -92.4293 187.513 -34.8548 209.668C23.6635 231.824 63.305 244.552 140.228 175.256C254.905 71.5475 320.503 134.715 320.503 134.715" stroke="white" stroke-opacity="0.1" stroke-width="5" stroke-miterlimit="10"/>
<path d="M-196.672 244.118C-196.672 244.118 -92.3753 166.751 -29.1366 193.169C28.9109 217.228 49.2038 211.567 126.128 141.749C240.808 38.4366 304.046 93.6308 304.046 93.6308" stroke="white" stroke-opacity="0.1" stroke-width="5" stroke-miterlimit="10"/>
<path d="M-215.695 225.31C-215.695 225.31 -92.0298 147.854 -29.253 174.303C28.8037 198.389 30.2197 173.358 107.157 103.931C221.854 0.0271481 286.519 47.7285 286.519 47.7285" stroke="white" stroke-opacity="0.1" stroke-width="5" stroke-miterlimit="10"/>
<path d="M-234.5 203.936C-234.5 203.936 -96.2243 129.864 -31.5698 152.51C24.118 172.326 17.9829 127.977 93.4918 56.7359C205.811 -49.4179 277.545 13.8026 277.545 13.8026" stroke="white" stroke-opacity="0.1" stroke-width="5" stroke-miterlimit="10"/>
</g>
</g>
<defs>
<filter id="filter0_f_1_753" x="0" y="0" width="242" height="242" filterUnits="userSpaceOnUse" color-interpolation-filters="sRGB">
<feFlood flood-opacity="0" result="BackgroundImageFix"/>
<feBlend mode="normal" in="SourceGraphic" in2="BackgroundImageFix" result="shape"/>
<feGaussianBlur stdDeviation="0.75" result="effect1_foregroundBlur_1_753"/>
</filter>
<linearGradient id="paint0_linear_1_753" x1="240.5" y1="240.5" x2="1.5" y2="1.5" gradientUnits="userSpaceOnUse">
<stop stop-color="#6366F1"/>
<stop offset="1" stop-color="#F1E7FA"/>
</linearGradient>
<clipPath id="clip0_1_753">
<rect x="1.5" y="1.5" width="239" height="239" rx="60" fill="white"/>
</clipPath>
</defs>
</svg>
