<svg width="100" height="100" viewBox="0 0 100 100" fill="none" xmlns="http://www.w3.org/2000/svg">
<rect width="100" height="100" rx="50" fill="#F4F7FA"/>
<path d="M74.9961 43.3206C74.9961 38.3588 73.0877 33.7786 69.6526 30.3435C66.2175 26.9084 61.6373 25 56.6755 25C54.3854 25 52.0953 25.3817 49.9961 26.3359C47.8969 25.5725 45.6068 25 43.3167 25C38.3549 25 33.7747 26.9084 30.3396 30.3435C25.1869 35.4962 23.6602 43.3206 26.332 50C25.5686 52.0992 24.9961 54.3893 24.9961 56.6794C24.9961 61.6412 26.9045 66.2214 30.3396 69.6565C33.7747 73.0916 38.5457 75 43.3167 75C45.6068 75 47.8969 74.6183 49.9961 73.6641C52.0953 74.4275 54.3854 75 56.6755 75C61.6373 75 66.2175 73.0916 69.6526 69.6565C74.8052 64.5038 76.332 56.8702 73.6602 50C74.6144 47.9008 74.9961 45.6107 74.9961 43.3206ZM63.3549 55.916L61.2556 58.0153C60.4923 58.7786 59.5381 59.542 58.393 59.7328C58.0114 59.7328 56.8663 59.9237 55.1488 58.2061L53.4312 56.4885L61.6373 48.2824C63.9274 45.9924 64.8816 43.7023 64.4999 41.2214C64.3091 39.313 63.1641 37.2137 61.4465 35.4962L59.3472 33.3969L56.2938 30.3435C56.103 30.1527 55.9121 29.9618 55.7213 29.771C56.103 29.771 56.4846 29.771 56.8663 29.771C60.4923 29.771 63.9274 31.1069 66.4083 33.7786C68.8892 36.2595 70.416 39.6947 70.416 43.3206C70.416 45.4198 69.8434 47.5191 69.0801 49.4275C69.0801 49.6183 68.8892 49.8092 68.8892 50C68.6984 50.1908 68.6984 50.3817 68.5076 50.5725C68.5076 50.7634 68.3167 50.9542 68.1259 50.9542C67.935 51.145 67.7442 51.3359 67.5534 51.7176C67.5534 51.9084 67.3625 51.9084 67.3625 52.0992C67.1717 52.4809 66.79 52.6718 66.4083 53.0534M66.4083 52.8626L63.3549 55.916L66.4083 52.8626ZM46.9427 50L50.1869 46.7557L53.4312 50L50.1869 53.2443L46.9427 50ZM55.9121 36.6412L58.0114 38.7405C58.7747 39.5038 59.5381 40.458 59.7289 41.6031C59.7289 41.9847 59.9198 43.1298 58.2022 44.8473L56.6755 46.374L48.4694 38.1679C44.4618 34.1603 39.6908 34.1603 35.6831 38.3588L30.5304 43.5114C30.3396 43.7023 30.1488 43.8931 29.9579 44.084C29.5763 40.2672 31.103 36.2595 33.9656 33.3969C36.4465 30.916 39.8816 29.3893 43.5075 29.3893C45.6068 29.3893 47.5152 29.9618 49.4236 30.7252C49.6144 30.916 49.9961 30.916 50.1869 31.1069C50.3778 31.1069 50.3778 31.2977 50.5686 31.2977C50.7594 31.4886 50.9503 31.4885 51.1411 31.6794C51.332 31.8702 51.5228 31.8702 51.7137 32.0611C51.9045 32.2519 52.0953 32.2519 52.2862 32.4427C52.6679 32.6336 52.8587 33.0153 53.2404 33.2061L55.9121 36.6412ZM44.4617 70.229C40.6449 70.6107 36.6373 69.084 33.7747 66.2214C31.2938 63.7405 29.7671 60.3053 29.7671 56.6794C29.7671 54.5802 30.3396 52.4809 31.103 50.5725C31.2938 50.3817 31.2938 50.1908 31.4846 50C31.6755 49.8092 31.6755 49.6183 31.8663 49.4275C32.0572 49.2366 32.0572 49.0458 32.248 48.855C32.4388 48.6641 32.6297 48.4733 32.6297 48.2824C32.8205 48.0916 32.8205 48.0916 32.8205 47.9008C33.0114 47.5191 33.393 47.3282 33.5839 46.9466L38.7365 41.7939C41.4083 39.1221 43.1259 39.8855 45.0343 41.6031L46.7518 43.3206L38.5457 51.5267C34.5381 55.5343 34.5381 60.3053 38.7365 64.313L40.8358 66.4122L43.8892 69.4656C44.0801 69.8473 44.2709 70.0382 44.4617 70.229ZM66.4083 66.2214C63.9274 68.7023 60.4923 70.229 56.8663 70.229C54.7671 70.229 52.6679 69.6565 50.7595 68.8931C50.5686 68.8931 50.3778 68.7023 50.1869 68.7023C49.9961 68.5114 49.8052 68.5114 49.6144 68.3206C49.4236 68.3206 49.4236 68.1298 49.2327 68.1298C49.0419 67.9389 48.6602 67.7481 48.4694 67.5572L48.2785 67.3664C47.8969 67.1756 47.706 66.7939 47.3243 66.4122L44.2709 63.3588L42.1717 61.2595C39.4999 58.5878 40.2633 56.8702 41.9808 54.9618L43.6984 53.2443L49.0419 58.5878L51.1411 60.687L51.9045 61.4504C53.8129 63.3588 55.9121 64.5038 58.2022 64.5038C58.393 64.5038 58.7747 64.5038 58.9656 64.5038C60.874 64.313 62.9732 63.1679 64.6908 61.4504L66.79 59.3511L69.8434 56.2977C70.0343 56.1069 70.2251 55.916 70.416 55.7252C70.6068 59.542 69.2709 63.3588 66.4083 66.2214Z" fill="#DFE6EC"/>
</svg>
