<svg width="119" height="119" viewBox="0 0 119 119" fill="none" xmlns="http://www.w3.org/2000/svg">
<g filter="url(#filter0_d_1_784)">
<path d="M20 20C20 8.9543 28.9543 0 40 0H79C90.0457 0 99 8.95431 99 20V59C99 70.0457 90.0457 79 79 79H40C28.9543 79 20 70.0457 20 59V20Z" fill="url(#paint0_linear_1_784)"/>
<path d="M58.2266 25.8122L56.6016 24.1871C55.6224 23.208 55.6224 21.6247 56.6016 20.6456L58.2266 19.0205C59.2057 18.0413 60.7891 18.0413 61.7682 19.0205L63.3932 20.6456C64.3724 21.6247 64.3724 23.208 63.3932 24.1871L61.7682 25.8122C60.7891 26.7914 59.2057 26.7914 58.2266 25.8122Z" fill="white"/>
<path d="M60 27.3122C59.1667 27.3122 58.3125 26.9998 57.6875 26.3539L56.0625 24.7289C54.7917 23.458 54.7917 21.3748 56.0625 20.0831L57.6875 18.458C58.9167 17.208 61.0833 17.2289 62.3333 18.458L63.9583 20.0831C65.2292 21.3539 65.2292 23.4372 63.9583 24.7289L62.3333 26.3539C61.6875 26.9998 60.8333 27.3122 60 27.3122ZM60 19.0831C59.5625 19.0831 59.125 19.2498 58.7917 19.5831L57.1667 21.208C56.5 21.8747 56.5 22.979 57.1667 23.6456L58.7917 25.2706C59.4583 25.9372 60.5417 25.9372 61.2292 25.2706L62.8542 23.6456C63.5208 22.979 63.5208 21.8955 62.8542 21.208L61.2292 19.5831C60.875 19.2498 60.4375 19.0831 60 19.0831Z" fill="white"/>
<path d="M75.5156 35.4375H77.8073C79.1823 35.4375 80.3073 36.5625 80.3073 37.9375V40.2291C80.3073 41.6041 79.1823 42.7292 77.8073 42.7292H75.5156C74.1406 42.7292 73.0156 41.6041 73.0156 40.2291V37.9375C73.0156 36.5625 74.1406 35.4375 75.5156 35.4375Z" fill="white"/>
<path d="M77.8099 43.5205H75.5182C73.7057 43.5205 72.2266 42.0413 72.2266 40.2288V37.9372C72.2266 36.1247 73.7057 34.6455 75.5182 34.6455H77.8099C79.6224 34.6455 81.1016 36.1247 81.1016 37.9372V40.2288C81.0807 42.0413 79.6224 43.5205 77.8099 43.5205ZM75.5182 36.2289C74.5599 36.2289 73.7891 36.9997 73.7891 37.9581V40.2497C73.7891 41.208 74.5599 41.9789 75.5182 41.9789H77.8099C78.7682 41.9789 79.5391 41.208 79.5391 40.2497V37.9581C79.5391 36.9997 78.7682 36.2289 77.8099 36.2289H75.5182Z" fill="white"/>
<path d="M44.4792 35.4375H42.1875C40.8125 35.4375 39.6875 36.5625 39.6875 37.9375V40.2291C39.6875 41.6041 40.8125 42.7292 42.1875 42.7292H44.4792C45.8542 42.7292 46.9792 41.6041 46.9792 40.2291V37.9375C46.9792 36.5625 45.8542 35.4375 44.4792 35.4375Z" fill="white"/>
<path d="M44.4818 43.5205H42.1901C40.3776 43.5205 38.8984 42.0413 38.8984 40.2288V37.9372C38.8984 36.1247 40.3776 34.6455 42.1901 34.6455H44.4818C46.2943 34.6455 47.7734 36.1247 47.7734 37.9372V40.2288C47.7526 42.0413 46.2943 43.5205 44.4818 43.5205ZM42.1901 36.2289C41.2318 36.2289 40.4609 36.9997 40.4609 37.9581V40.2497C40.4609 41.208 41.2318 41.9789 42.1901 41.9789H44.4818C45.4401 41.9789 46.2109 41.208 46.2109 40.2497V37.9581C46.2109 36.9997 45.4401 36.2289 44.4818 36.2289H42.1901Z" fill="white"/>
<path fill-rule="evenodd" clip-rule="evenodd" d="M61.4811 23.8951C62.0913 23.285 63.0806 23.285 63.6908 23.8951L74.7325 34.9368C75.3427 35.547 75.3427 36.5363 74.7325 37.1465C74.1223 37.7567 73.133 37.7567 72.5228 37.1465L61.4811 26.1049C60.8709 25.4947 60.8709 24.5053 61.4811 23.8951Z" fill="white"/>
<path fill-rule="evenodd" clip-rule="evenodd" d="M58.5215 23.8951C59.1317 24.5053 59.1317 25.4946 58.5215 26.1048L47.4799 37.1465C46.8697 37.7567 45.8803 37.7567 45.2701 37.1465C44.66 36.5363 44.66 35.5469 45.2701 34.9368L56.3118 23.8951C56.922 23.2849 57.9113 23.2849 58.5215 23.8951Z" fill="white"/>
<path d="M62.6248 60.8545H57.2914C55.3748 60.8545 53.9581 59.3128 54.3123 57.6461L55.1873 53.792H64.7498L65.6248 57.6461C66.0206 59.4169 64.6665 60.8545 62.6248 60.8545Z" fill="white"/>
<path opacity="0.4" d="M68.4156 50.5208L64.7281 53.7916H55.1656L51.4781 50.5208C49.3323 48.7708 49.3323 47.4166 50.9573 45.3541L57.4573 37.1458C57.9156 36.5833 58.4364 36.1875 58.9989 36C59.6031 35.7917 60.2698 35.7917 60.8739 36C61.4364 36.2083 61.9573 36.5833 62.4156 37.1458L68.9156 45.3541C70.5614 47.4166 70.4781 48.7083 68.4156 50.5208Z" fill="white"/>
</g>
<defs>
<filter id="filter0_d_1_784" x="0" y="0" width="119" height="119" filterUnits="userSpaceOnUse" color-interpolation-filters="sRGB">
<feFlood flood-opacity="0" result="BackgroundImageFix"/>
<feColorMatrix in="SourceAlpha" type="matrix" values="0 0 0 0 0 0 0 0 0 0 0 0 0 0 0 0 0 0 127 0" result="hardAlpha"/>
<feOffset dy="20"/>
<feGaussianBlur stdDeviation="10"/>
<feComposite in2="hardAlpha" operator="out"/>
<feColorMatrix type="matrix" values="0 0 0 0 0.203922 0 0 0 0 0.188235 0 0 0 0 0.215686 0 0 0 0.3 0"/>
<feBlend mode="normal" in2="BackgroundImageFix" result="effect1_dropShadow_1_784"/>
<feBlend mode="normal" in="SourceGraphic" in2="effect1_dropShadow_1_784" result="shape"/>
</filter>
<linearGradient id="paint0_linear_1_784" x1="20" y1="0" x2="99" y2="79" gradientUnits="userSpaceOnUse">
<stop stop-color="#7A7081"/>
<stop offset="1" stop-color="#343037"/>
</linearGradient>
</defs>
</svg>
