<svg width="20" height="20" viewBox="0 0 20 20" fill="none" xmlns="http://www.w3.org/2000/svg">
    <path d="M14.6846 8.95964C14.3263 8.95964 14.043 8.66797 14.043 8.31797C14.043 8.00964 13.7346 7.36797 13.218 6.80964C12.7096 6.26797 12.1513 5.9513 11.6846 5.9513C11.3263 5.9513 11.043 5.65964 11.043 5.30964C11.043 4.95964 11.3346 4.66797 11.6846 4.66797C12.518 4.66797 13.393 5.11797 14.1596 5.9263C14.8763 6.68464 15.3346 7.6263 15.3346 8.30964C15.3346 8.66797 15.043 8.95964 14.6846 8.95964Z" fill="#B0C1D0"/>
    <path d="M17.6924 8.95964C17.3341 8.95964 17.0508 8.66797 17.0508 8.31797C17.0508 5.35963 14.6424 2.95964 11.6924 2.95964C11.3341 2.95964 11.0508 2.66797 11.0508 2.31797C11.0508 1.96797 11.3341 1.66797 11.6841 1.66797C15.3508 1.66797 18.3341 4.6513 18.3341 8.31797C18.3341 8.66797 18.0424 8.95964 17.6924 8.95964Z" fill="#B0C1D0"/>
    <path d="M9.20964 12.4596L7.66797 14.0013C7.34297 14.3263 6.8263 14.3263 6.49297 14.0096C6.4013 13.918 6.30964 13.8346 6.21797 13.743C5.35964 12.8763 4.58464 11.968 3.89297 11.018C3.20964 10.068 2.65964 9.11797 2.25964 8.1763C1.86797 7.2263 1.66797 6.31797 1.66797 5.4513C1.66797 4.88464 1.76797 4.34297 1.96797 3.84297C2.16797 3.33464 2.48464 2.86797 2.9263 2.4513C3.45964 1.9263 4.04297 1.66797 4.65964 1.66797C4.89297 1.66797 5.1263 1.71797 5.33464 1.81797C5.5513 1.91797 5.74297 2.06797 5.89297 2.28464L7.8263 5.00964C7.9763 5.21797 8.08464 5.40964 8.15964 5.59297C8.23464 5.76797 8.2763 5.94297 8.2763 6.1013C8.2763 6.3013 8.21797 6.5013 8.1013 6.69297C7.99297 6.88463 7.83464 7.08464 7.63463 7.28464L7.0013 7.94297C6.90964 8.03464 6.86797 8.14297 6.86797 8.2763C6.86797 8.34297 6.8763 8.4013 6.89297 8.46797C6.91797 8.53464 6.94297 8.58463 6.95964 8.63463C7.10964 8.90964 7.36797 9.26797 7.73463 9.7013C8.10963 10.1346 8.50963 10.5763 8.94297 11.018C9.0263 11.1013 9.11797 11.1846 9.2013 11.268C9.53464 11.593 9.54297 12.1263 9.20964 12.4596Z" fill="#B0C1D0"/>
    <path d="M18.3083 15.2742C18.3083 15.5076 18.2667 15.7492 18.1833 15.9826C18.1583 16.0492 18.1333 16.1159 18.1 16.1826C17.9583 16.4826 17.775 16.7659 17.5333 17.0326C17.125 17.4826 16.675 17.8076 16.1667 18.0159C16.1583 18.0159 16.15 18.0242 16.1417 18.0242C15.65 18.2242 15.1167 18.3326 14.5417 18.3326C13.6917 18.3326 12.7833 18.1326 11.825 17.7242C10.8667 17.3159 9.90833 16.7659 8.95833 16.0742C8.63333 15.8326 8.30833 15.5909 8 15.3326L10.725 12.6076C10.9583 12.7826 11.1667 12.9159 11.3417 13.0076C11.3833 13.0242 11.4333 13.0492 11.4917 13.0742C11.5583 13.0992 11.625 13.1076 11.7 13.1076C11.8417 13.1076 11.95 13.0576 12.0417 12.9659L12.675 12.3409C12.8833 12.1326 13.0833 11.9742 13.275 11.8742C13.4667 11.7576 13.6583 11.6992 13.8667 11.6992C14.025 11.6992 14.1917 11.7326 14.375 11.8076C14.5583 11.8826 14.75 11.9909 14.9583 12.1326L17.7167 14.0909C17.9333 14.2409 18.0833 14.4159 18.175 14.6242C18.2583 14.8326 18.3083 15.0409 18.3083 15.2742Z" fill="#B0C1D0"/>
</svg>
